<?xml version="1.0" standalone="no"?>
<!DOCTYPE svg PUBLIC "-//W3C//DTD SVG 20010904//EN"
 "http://www.w3.org/TR/2001/REC-SVG-20010904/DTD/svg10.dtd">
<svg version="1.0" xmlns="http://www.w3.org/2000/svg"
 width="800.000000pt" height="800.000000pt" viewBox="0 0 800.000000 800.000000"
 preserveAspectRatio="xMidYMid meet">
<metadata>
Created by potrace 1.11, written by Peter Selinger 2001-2013
</metadata>
<g transform="translate(0.000000,800.000000) scale(0.100000,-0.100000)"
fill="#000000" stroke="none">
<path d="M4933 7949 c-6 -6 -37 -12 -67 -13 -31 0 -56 -4 -56 -8 0 -4 -12 -3
-26 2 -15 6 -23 6 -19 1 3 -5 1 -12 -5 -16 -5 -3 -10 -2 -10 4 0 7 -8 7 -24 1
-13 -5 -27 -6 -30 -3 -3 4 -6 1 -6 -5 0 -7 -5 -12 -11 -12 -5 0 -7 6 -3 13 6
9 5 9 -7 0 -9 -7 -32 -14 -52 -15 -20 -2 -37 -7 -37 -12 0 -5 -3 -7 -6 -3 -3
3 -17 2 -30 -3 -16 -6 -24 -6 -24 1 0 6 -5 7 -10 4 -6 -4 -8 -9 -6 -13 4 -6
-28 -12 -81 -15 -12 -1 -19 -5 -17 -9 3 -4 0 -9 -5 -9 -12 -2 -26 -5 -38 -9
-5 -1 -11 -2 -15 -1 -5 0 -8 -5 -8 -11 0 -9 -4 -8 -10 2 -7 12 -10 12 -10 1 0
-7 -6 -11 -15 -7 -8 3 -15 2 -15 -3 0 -8 -35 -18 -77 -23 -7 -1 -13 -5 -13 -9
0 -5 -7 -5 -17 -2 -9 4 -14 2 -11 -3 4 -5 -5 -10 -19 -11 -14 0 -28 -5 -32
-10 -3 -4 -13 -9 -21 -11 -8 -2 -16 -8 -18 -13 -2 -5 -8 -9 -13 -9 -6 0 -7 6
-4 13 4 6 0 4 -8 -5 -8 -10 -17 -15 -20 -11 -4 3 -7 1 -7 -6 0 -7 -4 -10 -9
-6 -5 3 -16 -1 -24 -9 -8 -8 -17 -12 -21 -9 -3 4 -6 0 -6 -7 0 -7 -3 -10 -7
-7 -3 4 -13 1 -21 -6 -10 -7 -13 -7 -9 -1 4 7 -8 5 -28 -4 -19 -9 -32 -19 -29
-23 2 -4 -4 -6 -13 -5 -10 2 -31 -5 -48 -15 -16 -11 -37 -22 -45 -26 -8 -3
-27 -15 -42 -25 -16 -11 -33 -16 -39 -12 -8 4 -9 3 -5 -4 5 -8 0 -12 -13 -12
-12 0 -21 -4 -21 -10 0 -5 -8 -10 -19 -10 -10 0 -26 -11 -35 -25 -11 -16 -22
-22 -33 -18 -11 4 -14 3 -9 -5 5 -8 0 -12 -13 -12 -12 0 -21 -4 -21 -10 0 -5
-9 -10 -21 -10 -11 0 -17 -4 -14 -10 6 -9 -7 -14 -21 -7 -3 1 -10 -6 -15 -16
-6 -9 -14 -15 -19 -12 -5 3 -15 -3 -22 -15 -7 -11 -21 -20 -30 -20 -11 0 -15
-5 -12 -15 5 -11 2 -13 -10 -9 -9 3 -16 1 -16 -6 0 -6 -4 -8 -10 -5 -5 3 -10
1 -10 -6 0 -7 -3 -10 -6 -6 -3 3 -14 -2 -24 -11 -10 -10 -30 -25 -44 -35 -15
-10 -24 -22 -21 -28 3 -5 -1 -6 -9 -3 -9 3 -16 1 -16 -6 0 -6 -4 -8 -10 -5 -5
3 -10 1 -10 -5 0 -6 -5 -8 -10 -5 -6 4 -9 1 -8 -7 2 -7 -3 -12 -9 -10 -7 1
-13 -2 -13 -8 0 -5 -7 -10 -16 -10 -8 0 -12 -4 -9 -10 3 -5 -1 -10 -9 -10 -9
0 -16 -7 -16 -16 0 -8 -4 -12 -10 -9 -5 3 -10 1 -10 -4 0 -6 -6 -11 -14 -11
-8 0 -17 -7 -20 -16 -3 -8 -11 -12 -16 -9 -6 4 -9 1 -8 -7 2 -7 -5 -12 -14
-12 -10 1 -16 -1 -14 -5 1 -3 -5 -14 -16 -23 -10 -10 -18 -15 -18 -10 0 4 -10
-8 -21 -25 -12 -18 -27 -33 -35 -33 -8 0 -19 -9 -26 -20 -7 -11 -18 -20 -24
-20 -7 0 -15 -7 -18 -16 -3 -8 -11 -12 -16 -9 -6 4 -10 3 -9 -2 3 -17 -1 -33
-8 -32 -23 4 -32 -3 -26 -18 5 -11 2 -15 -8 -12 -15 5 -61 -36 -51 -45 3 -3
-2 -6 -12 -6 -9 0 -14 -4 -11 -10 3 -5 -1 -10 -10 -10 -9 0 -13 -4 -10 -10 3
-5 -1 -10 -10 -10 -9 0 -13 -4 -10 -10 3 -5 1 -10 -5 -10 -7 0 -21 -11 -32
-25 -11 -14 -24 -22 -30 -19 -7 4 -8 2 -4 -4 4 -7 2 -12 -3 -12 -6 0 -11 -7
-11 -16 0 -8 -4 -12 -10 -9 -5 3 -10 -1 -10 -10 0 -9 -4 -13 -10 -10 -9 6 -14
-8 -11 -28 0 -4 -2 -6 -6 -6 -20 3 -34 -2 -28 -11 3 -5 1 -10 -5 -10 -6 0 -8
-5 -4 -12 4 -6 3 -8 -3 -5 -6 4 -17 -1 -24 -10 -12 -14 -12 -16 0 -8 10 5 12
4 7 -3 -4 -7 -14 -12 -22 -12 -8 0 -14 -7 -14 -15 0 -8 -6 -14 -12 -13 -7 2
-12 -3 -10 -9 1 -7 -5 -13 -15 -13 -9 0 -14 -3 -10 -6 3 -4 -4 -15 -16 -26
-12 -11 -16 -16 -8 -12 9 5 12 3 7 -4 -4 -7 -14 -12 -22 -12 -13 0 -18 -12
-15 -33 0 -4 -2 -6 -6 -5 -5 2 -20 -8 -36 -22 -20 -17 -24 -26 -15 -32 10 -5
8 -8 -4 -8 -10 0 -24 -12 -32 -27 -8 -16 -15 -24 -16 -19 0 5 -9 -1 -20 -14
-11 -12 -17 -27 -14 -31 3 -5 -3 -9 -12 -9 -10 0 -15 -3 -11 -6 3 -3 -5 -18
-18 -32 -13 -14 -22 -29 -19 -34 3 -5 2 -8 -3 -7 -20 3 -33 -2 -31 -13 2 -7
-2 -12 -9 -11 -7 2 -10 -4 -7 -12 4 -8 -1 -17 -10 -21 -9 -3 -16 -15 -16 -25
0 -11 -7 -19 -16 -19 -8 0 -13 -4 -10 -9 7 -11 -21 -8 -31 4 -4 4 -2 5 5 1 7
-4 13 -2 14 6 0 7 2 20 2 28 1 8 6 14 12 13 5 -1 9 14 9 32 -1 19 2 32 7 29 8
-5 12 17 9 45 -2 7 3 10 9 6 6 -4 11 -1 9 6 -3 28 1 50 10 45 4 -3 8 2 8 12 0
36 3 43 16 36 7 -5 6 0 -3 11 -9 11 -10 16 -2 11 11 -6 17 5 13 27 0 4 3 7 9
7 5 0 10 15 10 33 0 24 3 28 10 17 5 -8 10 -13 11 -10 0 3 2 18 4 35 2 16 9
31 14 33 5 2 7 10 4 19 -4 11 -2 14 5 9 8 -5 12 0 12 13 0 12 5 21 12 21 6 0
8 3 5 7 -4 3 1 15 10 26 13 15 14 18 3 12 -8 -4 -4 4 9 18 14 15 21 27 17 27
-5 0 -3 6 3 13 6 8 7 18 3 22 -4 5 -2 5 4 2 10 -6 51 69 46 86 -1 4 5 7 14 7
8 0 13 4 9 9 -3 5 0 15 7 23 7 7 14 20 16 28 2 8 8 17 13 18 5 2 9 10 9 18 0
8 6 17 14 20 9 3 12 12 9 21 -4 10 -2 14 4 10 5 -3 17 9 26 28 9 19 22 35 27
35 6 0 8 5 5 10 -3 6 -1 10 4 10 6 0 11 7 11 15 0 9 7 18 15 21 8 4 15 10 15
15 0 5 8 18 18 28 9 11 28 33 41 50 13 17 28 28 32 26 4 -3 5 5 1 17 -3 14 -2
19 6 14 7 -4 12 -1 12 9 0 9 4 14 8 11 5 -3 15 6 23 20 7 14 21 30 31 35 10 6
16 14 13 20 -4 5 -1 8 7 7 7 -2 12 3 10 10 -1 6 5 12 14 12 8 0 12 5 9 10 -3
6 -2 10 4 10 5 0 23 14 39 30 17 17 36 30 44 30 10 0 9 3 -2 10 -13 9 -7 14
13 11 4 0 7 3 7 9 0 5 7 10 16 10 8 0 12 5 9 10 -3 6 -2 10 2 10 10 0 57 35
95 72 15 14 28 24 28 20 0 -3 14 7 32 24 17 16 28 22 24 14 -4 -8 5 -1 19 15
15 17 24 23 20 15 -3 -8 1 -6 9 4 9 11 16 16 16 11 0 -4 8 1 18 12 9 11 22 18
27 16 6 -2 21 6 33 17 11 11 31 20 44 20 19 0 20 2 8 10 -12 8 -11 10 8 10 12
0 22 5 22 10 0 6 12 8 26 6 21 -4 23 -2 14 9 -9 10 -5 13 20 11 24 -2 29 1 25
13 -3 9 -3 12 1 8 4 -4 18 0 32 9 13 9 22 12 19 7 -3 -5 14 0 39 11 50 24 54
30 19 32 -14 1 -25 -2 -25 -7 0 -6 -10 -5 -21 2 -12 6 -19 7 -16 2 4 -6 -10
-10 -29 -11 -19 -1 -39 -4 -44 -7 -5 -3 -12 -1 -15 5 -4 7 -11 7 -18 2 -7 -5
-19 -10 -27 -10 -8 0 -33 -4 -55 -8 -22 -3 -48 -7 -57 -7 -10 -1 -18 -5 -18
-9 0 -4 -5 -8 -11 -8 -5 0 -7 6 -3 13 6 10 4 10 -7 0 -7 -7 -28 -13 -46 -13
-19 0 -36 -6 -39 -13 -3 -8 -19 -13 -39 -12 -18 0 -31 -3 -29 -7 5 -7 -26 -13
-48 -9 -5 0 -8 -4 -8 -10 0 -6 -7 -9 -15 -5 -8 3 -15 1 -15 -4 0 -5 -9 -7 -20
-5 -11 2 -20 1 -20 -3 0 -4 -12 -9 -27 -10 -16 -1 -33 -9 -39 -17 -8 -11 -13
-12 -22 -3 -9 9 -12 9 -12 -1 0 -7 -4 -9 -10 -6 -5 3 -10 1 -10 -4 0 -6 -12
-11 -26 -11 -14 0 -23 -4 -20 -9 3 -5 -1 -11 -9 -15 -8 -3 -15 0 -15 7 0 9 -3
8 -9 -1 -4 -8 -12 -14 -17 -15 -5 -1 -8 -5 -7 -8 1 -4 -7 -5 -17 -2 -11 3 -20
1 -20 -5 0 -5 -6 -10 -12 -9 -34 1 -49 -4 -42 -14 4 -7 1 -10 -7 -7 -8 3 -21
0 -29 -7 -8 -7 -24 -15 -35 -17 -11 -1 -23 -7 -26 -11 -3 -4 -15 -9 -27 -10
-11 0 -18 -5 -16 -9 3 -4 -2 -8 -10 -8 -9 0 -16 -5 -16 -12 0 -6 -3 -9 -6 -5
-4 3 -23 -2 -43 -12 -20 -11 -38 -19 -41 -19 -23 -2 -40 -17 -35 -30 4 -12 3
-12 -9 -3 -11 9 -17 8 -29 -4 -9 -8 -23 -15 -32 -15 -8 0 -18 -6 -21 -14 -3
-8 -17 -17 -30 -20 -14 -4 -23 -10 -20 -14 2 -4 -5 -9 -17 -9 -12 -1 -23 -7
-25 -13 -2 -5 -8 -8 -13 -4 -5 3 -9 1 -9 -5 0 -5 -14 -13 -31 -16 -20 -5 -27
-10 -19 -15 8 -5 3 -10 -14 -14 -14 -3 -26 -11 -26 -16 0 -5 -7 -6 -17 -3 -11
4 -14 3 -9 -5 6 -11 -5 -17 -26 -13 -5 0 -8 -6 -8 -16 0 -9 -3 -13 -7 -10 -3
4 -18 -3 -31 -15 -14 -13 -21 -16 -17 -8 8 13 7 13 -8 1 -9 -7 -17 -21 -17
-30 0 -11 -3 -13 -8 -4 -6 9 -13 7 -26 -8 -9 -12 -24 -18 -32 -15 -9 3 -12 1
-9 -4 3 -6 1 -10 -5 -10 -6 0 -8 -4 -5 -10 6 -10 -7 -14 -34 -11 -7 2 -10 -2
-7 -8 4 -5 -3 -12 -14 -16 -11 -3 -20 -11 -20 -17 0 -6 -3 -8 -7 -5 -3 4 -19
-6 -34 -22 -15 -16 -30 -27 -33 -23 -3 3 -6 -2 -6 -11 0 -9 -3 -16 -7 -15 -8
2 -93 -52 -93 -59 0 -2 6 -1 13 3 8 5 8 2 -2 -9 -7 -9 -19 -17 -26 -17 -7 0
-26 -13 -43 -30 -18 -16 -36 -30 -42 -30 -5 0 -10 -4 -10 -8 0 -5 -7 -17 -16
-28 -8 -10 -12 -12 -8 -4 4 8 -11 -4 -33 -27 -22 -24 -43 -40 -46 -36 -4 3 -7
1 -7 -6 0 -7 -7 -19 -15 -27 -8 -9 -15 -12 -15 -7 0 4 -9 -5 -20 -22 -11 -16
-20 -27 -20 -23 0 11 -87 -78 -100 -101 -6 -12 -16 -18 -22 -15 -6 4 -8 3 -4
-4 3 -6 -2 -15 -11 -21 -10 -6 -15 -11 -10 -11 4 0 -1 -8 -10 -18 -10 -11 -22
-17 -27 -14 -5 3 -6 0 -2 -6 4 -6 -5 -19 -19 -28 -14 -9 -25 -23 -25 -31 0 -8
-5 -11 -10 -8 -6 3 -10 2 -10 -4 0 -6 -11 -22 -25 -36 -14 -14 -22 -25 -18
-25 4 0 0 -5 -10 -11 -9 -6 -14 -15 -11 -21 4 -6 3 -8 -3 -5 -6 4 -16 0 -23
-8 -7 -8 -9 -15 -4 -15 5 0 -2 -7 -14 -16 -12 -8 -20 -20 -17 -25 4 -5 -2 -9
-12 -9 -15 0 -16 -2 -3 -10 13 -9 7 -14 -12 -11 -5 0 -8 -6 -8 -14 0 -8 -4
-15 -10 -15 -5 0 -10 -6 -10 -14 0 -8 -9 -21 -19 -28 -11 -8 -21 -20 -23 -28
-2 -8 -12 -23 -23 -33 -11 -10 -13 -15 -5 -11 9 4 7 -1 -5 -14 -32 -34 -46
-52 -40 -52 3 0 -6 -16 -20 -35 -16 -20 -24 -39 -19 -46 5 -9 2 -10 -9 -6 -11
4 -17 1 -17 -7 0 -21 -26 -67 -33 -59 -4 3 -7 -3 -7 -15 0 -12 -5 -22 -12 -22
-6 0 -8 -3 -5 -7 4 -3 -1 -12 -11 -20 -9 -8 -11 -11 -4 -8 11 6 11 3 0 -14 -7
-12 -16 -21 -20 -21 -5 0 -8 -11 -8 -25 0 -16 -6 -25 -16 -25 -8 0 -13 -4 -9
-9 3 -6 -3 -24 -14 -42 -11 -18 -18 -36 -15 -41 3 -4 -2 -8 -11 -8 -9 0 -13
-5 -10 -11 4 -5 0 -18 -8 -27 -8 -9 -17 -26 -19 -37 -1 -11 -7 -23 -11 -26 -5
-3 -10 -12 -12 -20 -1 -8 -6 -25 -11 -39 -4 -14 -7 -26 -5 -28 1 -1 -5 -10
-14 -18 -8 -9 -13 -20 -10 -25 4 -5 2 -9 -2 -9 -5 0 -9 -10 -10 -22 -1 -11 -6
-24 -11 -27 -5 -3 -8 -18 -8 -33 1 -22 -1 -25 -13 -15 -11 10 -13 8 -7 -11 4
-12 3 -22 -2 -22 -6 0 -13 -7 -16 -16 -4 -10 -2 -13 7 -8 8 5 7 2 -2 -9 -8
-10 -11 -20 -8 -24 4 -3 -1 -12 -11 -20 -9 -8 -11 -11 -3 -7 10 5 12 3 5 -7
-9 -14 -10 -19 -13 -40 0 -5 -4 -8 -9 -6 -4 3 -8 -11 -9 -30 -1 -19 -8 -42
-15 -51 -11 -13 -11 -15 2 -7 13 8 13 6 2 -8 -8 -9 -11 -21 -7 -27 3 -5 1 -10
-5 -10 -6 0 -8 -4 -5 -10 3 -5 2 -10 -3 -10 -8 0 -12 -14 -13 -52 0 -10 -4
-18 -8 -18 -4 0 -8 -19 -10 -42 -1 -24 -6 -44 -12 -46 -5 -2 -9 -8 -9 -13 0
-6 5 -7 11 -3 7 4 6 -3 -2 -17 -7 -13 -12 -35 -10 -48 1 -13 -1 -21 -6 -18 -5
4 -9 -4 -8 -16 1 -12 -1 -36 -5 -54 -5 -19 -3 -36 4 -44 8 -9 7 -11 -4 -7 -13
5 -16 -3 -14 -43 1 -27 -2 -52 -7 -54 -4 -3 -6 -14 -4 -25 2 -11 0 -20 -5 -20
-5 0 -5 -13 0 -30 5 -17 5 -28 0 -25 -4 3 -8 -19 -8 -48 1 -29 -4 -62 -10 -73
-12 -22 -11 -41 2 -63 6 -10 5 -12 -2 -7 -7 4 -12 1 -12 -8 0 -9 6 -16 13 -16
9 0 9 -2 0 -8 -16 -10 -15 -301 1 -321 8 -12 8 -13 -1 -7 -9 5 -13 0 -13 -14
0 -13 4 -19 12 -14 7 4 8 3 4 -4 -4 -7 -9 -21 -11 -33 -3 -15 0 -19 10 -15 9
3 12 0 8 -9 -3 -8 -8 -13 -12 -11 -4 3 -7 -8 -6 -24 0 -23 2 -26 14 -17 12 10
13 9 6 -2 -5 -8 -7 -35 -6 -60 2 -25 4 -66 5 -91 1 -25 5 -51 10 -59 6 -10 5
-12 -2 -7 -17 10 -15 0 4 -18 9 -9 11 -16 4 -16 -6 0 -8 -5 -4 -11 3 -6 7 -32
8 -58 1 -26 4 -51 7 -56 3 -6 7 -30 8 -55 1 -24 7 -50 12 -56 7 -8 6 -14 -1
-19 -7 -4 -7 -12 0 -24 5 -10 6 -21 3 -25 -3 -3 -2 -6 4 -6 6 0 9 -9 6 -20 -3
-11 -1 -20 4 -20 5 0 10 -10 10 -22 2 -31 7 -50 17 -67 7 -10 6 -12 -4 -6 -10
6 -11 4 -4 -6 5 -8 10 -25 12 -39 2 -13 7 -29 12 -35 5 -6 10 -22 12 -35 2
-14 7 -31 12 -39 6 -10 5 -12 -2 -7 -8 5 -10 2 -6 -8 3 -9 10 -16 15 -16 4 0
6 -7 2 -16 -3 -9 0 -20 8 -25 12 -7 12 -9 -1 -9 -9 0 -11 -3 -5 -8 6 -4 16
-18 23 -31 11 -19 11 -22 0 -16 -10 6 -11 5 0 -6 6 -7 12 -23 12 -35 0 -12 6
-27 14 -33 7 -6 12 -22 10 -36 -1 -15 3 -25 11 -25 8 0 12 -11 10 -30 -1 -17
2 -28 9 -27 6 1 10 -4 8 -12 -1 -7 2 -19 9 -27 6 -7 8 -18 4 -24 -3 -5 -1 -10
4 -10 6 0 11 -6 11 -13 0 -7 8 -29 19 -50 10 -20 14 -34 7 -31 -6 3 -3 -1 7
-9 9 -8 17 -26 17 -40 0 -14 4 -29 10 -32 6 -3 7 1 4 9 -3 9 -4 16 0 16 6 0
31 -81 28 -92 -1 -5 2 -8 8 -8 6 0 10 -3 9 -7 -2 -16 14 -53 23 -53 6 0 7 -7
4 -16 -3 -8 -2 -12 4 -9 6 3 10 -1 10 -9 0 -9 5 -16 10 -16 6 0 9 -3 9 -7 -4
-23 2 -43 11 -38 5 3 12 -6 16 -20 3 -14 14 -30 23 -35 12 -7 12 -9 2 -10 -11
0 -10 -5 4 -20 11 -12 20 -27 21 -35 1 -8 18 -37 38 -63 20 -27 33 -52 29 -56
-3 -3 1 -6 10 -6 10 0 17 -5 17 -12 0 -6 10 -25 23 -42 12 -17 29 -43 36 -58
8 -15 18 -25 22 -22 5 3 6 -3 2 -12 -4 -12 -3 -15 5 -10 7 4 12 1 12 -7 0 -8
7 -20 15 -27 8 -7 12 -16 9 -21 -3 -5 5 -9 18 -9 17 0 19 -3 9 -9 -11 -7 -10
-11 7 -20 11 -6 24 -20 27 -31 4 -11 11 -17 17 -14 6 4 8 3 5 -3 -4 -5 2 -19
13 -30 10 -12 16 -24 12 -27 -3 -4 2 -4 13 0 11 4 17 4 13 -1 -4 -4 2 -19 12
-33 11 -13 20 -31 20 -40 0 -12 2 -12 17 -1 11 9 14 10 9 2 -4 -8 6 -25 26
-45 18 -17 43 -48 55 -67 12 -20 23 -31 23 -25 0 5 -6 16 -13 23 -10 11 -9 12
1 6 7 -4 17 -18 22 -31 6 -14 20 -29 32 -34 13 -5 19 -9 14 -9 -4 -1 8 -18 28
-38 20 -21 36 -41 36 -46 0 -5 9 -7 19 -4 13 3 18 0 15 -8 -3 -7 2 -15 11 -19
9 -3 13 -11 10 -16 -4 -6 -3 -10 2 -9 20 3 33 -2 31 -13 -2 -7 5 -12 14 -12
10 1 17 -1 16 -5 -3 -14 15 -41 23 -35 5 3 9 0 9 -5 0 -6 7 -11 16 -11 8 0 12
-4 9 -10 -3 -5 10 -20 29 -32 20 -13 36 -29 36 -37 0 -8 6 -11 15 -7 10 3 15
-1 15 -11 0 -9 3 -14 6 -11 3 4 14 -1 24 -10 9 -9 30 -27 46 -39 16 -12 40
-31 53 -42 13 -12 28 -21 33 -21 5 0 6 -5 2 -12 -4 -6 -3 -8 3 -5 13 8 65 -31
58 -44 -4 -5 0 -6 8 -3 8 3 30 -7 48 -23 40 -33 63 -48 104 -68 17 -8 26 -14
20 -15 -5 0 10 -12 35 -27 25 -15 48 -27 53 -25 4 1 7 -3 7 -10 0 -6 3 -9 6
-5 3 3 16 -3 27 -14 12 -11 27 -17 34 -15 7 3 19 -4 27 -16 8 -11 19 -17 24
-14 5 3 16 -2 23 -12 13 -16 12 -16 -6 -2 -17 12 -18 12 -7 0 7 -8 16 -15 20
-16 4 0 24 -8 46 -17 21 -9 42 -17 47 -17 5 0 9 -6 9 -14 0 -9 7 -12 20 -9 11
3 20 1 20 -5 0 -11 121 -72 144 -72 9 0 16 -5 16 -12 0 -6 3 -8 7 -5 3 4 15
-1 26 -10 11 -10 17 -13 14 -6 -5 8 -1 8 17 0 13 -7 22 -16 18 -22 -3 -5 3 -3
13 5 11 9 16 10 11 3 -7 -12 -3 -14 32 -17 7 -1 17 -7 21 -14 5 -8 11 -13 15
-13 19 3 27 0 22 -8 -4 -5 2 -8 11 -6 10 1 24 -2 31 -8 7 -5 15 -7 19 -3 3 3
15 -1 25 -11 14 -13 18 -13 18 -2 0 10 3 10 8 2 4 -6 16 -13 27 -15 11 -1 23
-7 26 -12 4 -5 18 -8 33 -8 16 0 23 -5 19 -12 -4 -7 -1 -6 9 1 8 7 18 10 21 6
4 -3 7 -1 7 6 0 7 7 19 15 28 8 8 13 18 10 23 -3 4 1 10 9 13 8 3 17 19 21 36
4 17 11 31 16 31 6 0 8 4 4 9 -3 5 -1 12 5 16 6 4 8 10 5 15 -3 5 -1 11 5 15
5 3 10 17 10 31 0 16 4 23 11 18 8 -4 8 0 0 15 -9 16 -9 21 0 19 13 -3 20 40
7 48 -4 3 0 17 10 32 9 14 12 23 6 20 -12 -8 -12 20 -1 40 6 8 3 10 -10 5 -16
-6 -16 -5 -4 10 7 9 9 17 4 17 -11 0 -11 30 1 48 4 7 4 11 -1 10 -4 -2 -9 2
-11 7 -2 6 -10 21 -19 34 -11 17 -11 21 -2 15 10 -6 10 -3 -1 12 -8 10 -19 22
-23 25 -5 3 -8 8 -6 10 5 9 -13 49 -23 49 -5 0 -7 7 -4 16 3 8 2 12 -4 9 -6
-3 -10 1 -10 10 0 9 -4 13 -10 10 -5 -3 -10 1 -10 9 0 9 -5 16 -11 16 -5 0 -7
5 -4 10 3 6 2 10 -4 10 -5 0 -13 9 -16 20 -4 11 -11 18 -16 15 -5 -4 -9 -1 -9
6 0 6 -8 18 -17 26 -10 8 -12 12 -6 8 9 -4 11 -1 7 10 -4 9 -9 14 -11 11 -3
-3 -16 7 -30 22 -14 15 -30 26 -35 24 -5 -1 -7 2 -3 8 3 5 1 10 -6 10 -7 0 -9
3 -6 6 7 8 -31 44 -45 44 -5 0 -7 4 -4 9 7 10 -28 43 -37 36 -4 -3 -5 -2 -3 1
3 3 -6 18 -19 32 -13 14 -21 30 -18 35 3 6 1 7 -5 3 -7 -4 -12 -2 -12 3 0 6
-7 11 -17 11 -9 0 -14 3 -11 6 4 3 -14 25 -38 49 -24 25 -44 49 -44 55 0 5 -3
9 -8 8 -4 -2 -21 12 -38 29 -17 18 -34 29 -38 25 -4 -4 -6 -2 -4 4 4 13 -93
124 -103 118 -4 -2 -10 4 -14 15 -3 11 -13 22 -21 25 -8 3 -12 10 -9 16 3 5
-1 10 -10 10 -9 0 -13 5 -10 10 3 6 -1 10 -10 10 -9 0 -14 4 -11 8 3 4 -11 21
-30 37 -19 16 -34 34 -34 42 0 7 -7 13 -17 13 -9 0 -13 3 -10 7 10 9 -14 34
-25 26 -6 -3 -9 0 -6 8 6 18 -19 42 -33 33 -8 -4 -9 -3 -5 4 4 6 -9 28 -28 48
-19 21 -33 41 -30 46 3 5 2 7 -3 6 -4 -2 -9 1 -10 6 0 5 -8 13 -17 18 -9 5
-16 16 -16 24 0 8 -5 12 -10 9 -6 -3 -10 1 -10 10 0 10 -5 13 -12 9 -6 -4 -8
-3 -4 4 3 6 2 13 -4 17 -6 4 -7 11 -4 17 4 6 2 8 -3 5 -10 -6 -16 1 -23 28 -2
6 -10 15 -19 22 -9 6 -26 30 -36 52 -11 22 -23 41 -27 41 -5 0 -8 5 -8 11 0 6
-7 17 -15 26 -8 8 -13 19 -10 24 4 5 1 9 -4 9 -6 0 -10 6 -8 13 1 6 -4 11 -11
9 -7 -1 -12 3 -11 10 3 28 -1 39 -13 32 -7 -4 -10 -3 -5 1 4 5 0 19 -8 32 -9
13 -13 27 -10 32 2 5 -2 12 -11 15 -8 3 -13 10 -9 15 3 5 0 13 -6 16 -5 4 -8
14 -5 22 3 8 1 11 -4 8 -10 -6 -14 15 -11 44 2 8 -2 10 -10 6 -9 -6 -10 -1 -7
19 4 18 1 26 -8 26 -8 0 -14 11 -14 26 0 14 -4 23 -9 20 -5 -4 -8 2 -6 11 1
10 -3 24 -9 32 -8 11 -8 13 1 7 9 -5 11 -2 7 8 -3 9 -11 13 -16 10 -6 -4 -5 4
2 16 9 18 9 21 0 15 -9 -6 -11 0 -8 24 2 17 0 31 -5 31 -5 0 -7 9 -4 20 3 11
1 18 -3 15 -5 -3 -11 -1 -15 5 -3 5 -2 10 2 10 14 0 6 92 -8 101 -10 6 -10 9
-2 9 7 0 10 7 6 17 -5 12 -3 14 8 9 8 -4 5 0 -6 9 -17 13 -18 18 -7 36 7 11 9
25 5 31 -10 17 -13 59 -3 53 4 -3 4 11 0 30 -5 22 -4 38 3 42 6 4 7 1 2 -7 -5
-9 -4 -11 4 -6 6 4 8 13 4 19 -9 14 -12 67 -3 67 3 0 5 16 5 35 -1 19 1 35 4
35 6 0 12 44 14 97 1 12 5 19 9 17 8 -5 12 26 9 55 -2 7 3 10 9 6 7 -4 10 -1
9 6 -5 21 10 69 20 69 5 0 8 11 7 25 -2 13 1 22 5 19 8 -5 11 3 8 22 0 4 4 10
10 13 6 4 12 19 13 33 1 15 6 24 10 22 4 -3 8 2 8 11 0 9 4 14 8 11 4 -2 9 7
10 21 1 15 11 32 22 40 11 8 18 19 15 24 -4 5 -1 9 6 9 7 0 10 3 6 6 -8 9 16
33 27 26 5 -3 6 0 2 6 -3 6 6 24 22 40 15 16 26 35 24 43 -3 8 -1 11 3 7 9 -8
35 16 35 32 0 6 5 8 10 5 6 -3 10 1 10 10 0 9 4 14 9 10 5 -3 12 4 16 15 4 11
11 17 17 14 8 -5 9 -1 5 10 -4 9 -3 15 2 12 12 -8 52 29 43 39 -4 5 1 5 11 2
10 -4 17 -1 17 7 0 7 12 19 28 27 15 8 33 22 40 32 7 9 18 15 23 12 5 -4 9 1
9 10 0 10 5 13 12 9 6 -4 17 1 25 11 7 11 13 15 13 10 0 -5 7 0 16 11 8 10 12
12 8 4 -5 -8 4 -5 20 8 16 12 37 22 47 22 11 0 19 5 19 10 0 6 7 10 15 10 8 0
15 5 15 11 0 6 7 9 15 5 8 -3 15 0 15 6 0 6 3 9 6 5 4 -3 13 1 22 9 12 13 16
13 23 2 7 -10 9 -10 9 3 0 15 10 19 53 20 10 0 15 5 11 11 -4 7 -2 8 5 4 6 -4
18 -2 26 4 12 10 15 10 15 -1 0 -8 6 -6 16 7 8 10 12 12 8 4 -7 -13 -5 -13 8
-2 9 7 25 12 35 10 11 -2 17 2 15 11 -3 12 -1 12 14 0 10 -8 15 -9 11 -3 -6
11 30 15 133 14 21 0 22 2 10 11 -12 9 -11 10 5 4 38 -14 76 -15 69 -3 -5 7
-3 8 7 2 8 -5 25 -10 39 -12 13 -2 31 -9 39 -15 8 -7 12 -7 9 -2 -4 6 3 11 15
12 12 0 16 -1 10 -4 -25 -9 -13 -20 17 -17 21 3 33 -1 37 -12 3 -8 12 -13 20
-10 9 4 13 1 11 -6 -3 -8 -20 -13 -41 -12 -21 0 -33 -4 -30 -10 4 -5 -1 -7
-10 -3 -10 3 -17 2 -17 -3 0 -5 -7 -6 -17 -3 -12 5 -14 3 -8 -7 5 -8 3 -11 -6
-8 -8 3 -23 -2 -33 -11 -11 -9 -16 -11 -12 -3 7 11 4 11 -13 0 -12 -7 -21 -16
-21 -21 0 -4 -4 -5 -10 -2 -5 3 -10 1 -10 -4 0 -6 -7 -11 -15 -11 -8 0 -24 -9
-34 -19 -11 -11 -22 -17 -25 -13 -3 3 -6 0 -6 -6 0 -7 -7 -12 -15 -12 -8 0
-15 -7 -15 -16 0 -8 -4 -12 -10 -9 -5 3 -10 1 -10 -4 0 -6 -10 -11 -21 -11
-18 0 -19 -2 -9 -15 11 -13 10 -14 -6 -9 -10 4 -16 4 -12 -1 4 -4 -16 -29 -43
-56 -29 -28 -49 -55 -46 -63 3 -7 0 -13 -6 -12 -7 0 -13 -1 -13 -4 -1 -3 -11
-21 -23 -40 -12 -19 -27 -47 -34 -63 -7 -15 -17 -24 -21 -20 -4 5 -7 3 -6 -2
5 -22 -1 -46 -9 -41 -5 4 -8 -2 -6 -11 1 -10 -4 -28 -12 -41 -8 -13 -12 -29
-10 -37 3 -7 -1 -25 -9 -40 -8 -15 -12 -30 -9 -33 3 -3 5 1 5 8 0 7 3 11 6 8
3 -4 1 -16 -6 -27 -6 -12 -11 -41 -12 -66 0 -24 -4 -43 -8 -40 -3 2 -7 -2 -7
-10 0 -8 4 -12 9 -9 11 7 10 -3 -3 -28 -8 -15 -8 -19 0 -14 15 10 14 -7 -1
-23 -11 -11 -10 -12 1 -6 9 5 12 3 9 -6 -3 -8 -1 -22 4 -31 6 -12 5 -18 -2
-18 -7 0 -9 -8 -4 -22 4 -13 7 -36 5 -51 -1 -17 3 -26 9 -22 7 4 7 -2 0 -20
-7 -17 -7 -24 0 -20 9 6 13 -11 13 -57 0 -10 4 -15 10 -11 6 4 8 0 4 -9 -3 -9
-2 -19 3 -24 5 -5 11 -22 14 -38 3 -16 11 -33 18 -38 7 -4 9 -8 4 -8 -5 0 -2
-7 5 -16 22 -27 48 -88 42 -98 -4 -5 1 -6 12 -2 16 6 16 4 4 -11 -8 -10 -9
-14 -2 -10 8 5 18 -4 28 -23 8 -16 20 -30 25 -30 6 0 10 -7 10 -15 0 -9 7 -18
15 -21 8 -4 13 -9 10 -14 -2 -4 7 -13 20 -20 13 -7 22 -17 19 -22 -3 -4 0 -8
6 -8 6 0 8 -4 5 -10 -3 -5 1 -10 9 -10 9 0 21 -9 28 -20 7 -11 19 -20 27 -20
8 0 11 -3 8 -7 -4 -3 9 -17 28 -30 19 -13 35 -28 35 -33 0 -6 9 -10 20 -10 14
0 18 -5 13 -17 -4 -11 -3 -14 5 -9 7 4 15 1 18 -8 3 -9 10 -13 15 -10 5 3 9 0
9 -5 0 -6 9 -11 21 -11 11 0 18 -4 14 -9 -3 -5 20 -21 50 -35 30 -14 55 -29
55 -35 0 -5 16 -15 35 -21 19 -6 35 -15 35 -19 0 -3 12 -12 28 -19 15 -7 43
-21 62 -31 19 -11 38 -17 41 -15 4 2 10 -3 13 -12 4 -9 13 -14 22 -10 8 3 12
2 9 -3 -3 -5 -1 -12 4 -15 5 -4 13 -2 16 4 4 7 17 1 33 -15 14 -14 31 -24 38
-21 6 2 17 -1 23 -7 7 -7 15 -12 19 -13 20 -2 82 -36 82 -44 0 -5 9 -7 20 -5
12 2 23 -2 26 -9 3 -8 14 -12 25 -9 11 3 28 -2 38 -11 10 -9 21 -13 24 -9 4 3
7 1 7 -6 0 -8 7 -11 15 -7 8 3 15 1 15 -5 0 -6 5 -7 10 -4 6 3 17 0 25 -9 9
-9 26 -13 43 -10 18 3 23 1 13 -5 -16 -10 -4 -18 27 -15 12 0 22 -4 22 -11 0
-7 10 -12 23 -11 12 0 21 -3 20 -9 -1 -5 8 -11 20 -11 21 -2 59 -10 65 -14 1
-2 5 -3 10 -5 4 -1 20 -7 35 -13 16 -7 33 -9 39 -6 7 4 8 2 4 -4 -6 -11 12
-17 37 -13 4 0 7 -4 7 -11 0 -6 3 -8 7 -5 3 4 15 0 25 -10 14 -13 18 -13 18
-2 1 10 4 9 14 -4 9 -11 20 -15 31 -10 13 4 16 3 11 -5 -4 -8 0 -12 11 -12 10
0 31 -7 46 -15 15 -8 25 -9 21 -3 -4 6 6 4 22 -5 58 -31 109 -51 127 -51 9 1
17 -2 17 -6 0 -4 7 -11 16 -14 10 -4 13 -2 8 7 -4 6 2 4 14 -7 12 -10 28 -16
37 -12 9 3 14 2 11 -3 -3 -5 1 -11 8 -14 8 -3 17 -1 20 6 3 7 5 6 5 -3 1 -14
17 -19 68 -23 7 0 11 -5 10 -11 -1 -6 6 -10 16 -8 10 2 30 -6 46 -18 16 -11
35 -20 43 -20 7 0 26 -7 42 -15 15 -8 33 -12 39 -8 6 3 7 1 3 -5 -5 -8 0 -12
13 -12 12 0 21 -5 21 -11 0 -5 4 -8 9 -4 5 3 12 1 16 -4 3 -6 13 -7 22 -4 11
4 14 3 9 -5 -5 -8 2 -12 19 -12 14 0 24 -4 20 -9 -3 -6 4 -8 15 -6 18 4 25 -6
21 -29 -1 -5 4 -4 11 2 10 8 24 4 57 -19 24 -16 48 -29 53 -29 5 0 6 -4 3 -10
-3 -6 1 -7 10 -4 9 4 25 -2 36 -12 12 -11 23 -17 25 -14 2 3 14 -4 26 -15 13
-11 29 -20 37 -22 8 -1 18 -8 22 -15 5 -7 9 -8 9 -3 0 7 3 7 8 0 10 -14 69
-55 79 -55 5 0 16 -8 24 -17 36 -41 80 -73 91 -67 6 4 9 3 6 -2 -6 -12 28 -44
38 -36 4 4 4 -1 1 -10 -4 -10 -3 -18 2 -18 13 0 80 -69 96 -100 8 -16 21 -32
27 -36 9 -5 8 -1 -2 12 -12 17 -12 17 0 6 8 -7 15 -16 15 -20 1 -4 6 -17 13
-28 6 -12 8 -24 5 -28 -3 -3 -1 -6 5 -6 6 0 14 -10 18 -22 3 -13 13 -30 21
-40 8 -9 15 -22 17 -30 1 -7 5 -19 9 -26 10 -15 20 -60 19 -85 0 -9 3 -15 7
-12 5 2 9 -5 9 -18 2 -31 6 -50 16 -66 6 -10 5 -12 -2 -7 -7 4 -12 3 -12 -3 0
-5 5 -13 11 -17 8 -4 7 -9 -2 -16 -11 -7 -11 -11 -1 -15 6 -2 12 -9 12 -14 0
-6 -5 -7 -12 -3 -7 5 -8 3 -2 -7 11 -18 12 -69 2 -75 -4 -3 -8 -15 -8 -27 0
-18 2 -19 10 -7 6 9 10 10 10 3 0 -7 -8 -17 -17 -22 -10 -6 -13 -11 -7 -11 12
0 15 -30 3 -30 -5 0 -5 -7 -2 -17 5 -12 3 -14 -7 -8 -8 5 -11 4 -6 -3 4 -6 0
-27 -8 -46 -8 -19 -12 -37 -8 -40 3 -4 -4 -15 -16 -27 -13 -11 -20 -24 -17
-30 4 -5 -1 -9 -9 -9 -10 0 -13 -7 -11 -20 2 -11 0 -18 -6 -15 -5 4 -9 1 -9
-5 0 -13 -30 -46 -30 -33 0 4 -8 -7 -17 -25 -8 -18 -18 -30 -21 -27 -3 2 -13
-5 -23 -17 -23 -26 -24 -35 -2 -17 9 8 17 13 17 11 1 -2 13 -1 28 3 16 4 25
12 21 18 -4 7 0 8 11 4 18 -7 76 20 76 35 0 4 11 8 24 8 13 0 27 7 30 16 3 8
10 12 16 9 5 -3 10 -2 10 4 0 6 7 8 15 5 8 -4 17 1 21 10 3 9 9 14 13 11 4 -2
18 6 32 18 13 12 31 22 39 22 8 0 14 6 12 13 -1 6 5 12 14 12 9 0 12 5 8 12
-4 6 -3 8 4 4 6 -3 13 -2 17 4 4 6 11 7 17 4 6 -4 8 -3 5 3 -4 6 5 15 18 21
14 7 25 16 25 21 0 6 7 7 17 4 11 -4 14 -3 9 5 -8 13 78 105 88 95 3 -4 6 1 6
11 0 9 5 14 10 11 6 -3 10 3 10 14 0 11 5 23 10 26 6 4 7 12 3 18 -4 7 2 5 12
-3 11 -9 16 -10 11 -2 -4 7 -2 12 4 12 6 0 8 5 5 10 -3 6 -1 10 5 10 6 0 8 4
5 10 -3 5 -2 10 4 10 6 0 13 11 17 25 3 14 10 22 15 19 5 -3 10 0 10 5 1 6 2
17 3 24 1 6 7 11 13 10 7 -2 10 6 8 17 -2 11 0 22 6 25 5 4 9 15 9 26 0 10 4
19 8 19 10 0 37 69 35 93 0 9 3 17 8 17 5 0 5 7 2 17 -4 9 -2 14 3 10 6 -3 9
7 8 24 -1 22 1 27 9 20 9 -7 12 4 11 39 0 27 3 47 7 44 4 -2 10 0 14 6 3 5 1
10 -5 10 -7 0 -9 8 -5 19 3 10 6 46 6 81 1 40 4 58 10 49 12 -20 11 -2 -1 22
-7 13 -7 19 0 19 5 0 10 5 10 11 0 5 -4 8 -8 5 -5 -3 -9 1 -9 9 0 8 4 12 9 9
12 -8 10 10 -4 24 -9 9 -9 12 0 12 10 0 10 5 1 21 -6 13 -7 19 -1 15 6 -3 9 2
7 11 -2 10 -4 18 -5 18 -1 0 -4 26 -5 59 -2 32 -8 63 -14 69 -6 6 -11 16 -11
22 0 5 5 3 11 -5 9 -12 9 -11 4 5 -4 11 -9 31 -10 45 -2 14 -4 26 -5 28 -1 1
-3 6 -4 11 0 6 -6 15 -13 22 -8 8 -9 18 -2 31 7 14 6 20 -6 24 -9 4 -14 13
-11 20 3 7 1 16 -5 20 -6 3 -8 13 -5 21 3 8 2 12 -3 9 -5 -3 -11 1 -15 9 -3 8
0 15 7 15 8 0 9 3 1 8 -9 6 -23 32 -29 55 -2 4 -4 10 -5 15 -1 4 -2 11 -1 15
1 5 -3 6 -9 2 -6 -4 -13 7 -16 24 -4 16 -13 32 -21 35 -8 3 -11 10 -8 16 3 5
1 10 -4 10 -6 0 -11 7 -11 15 0 8 -5 15 -11 15 -6 0 -9 7 -5 15 3 9 0 15 -9
15 -8 0 -15 9 -15 21 0 11 -4 17 -10 14 -5 -3 -10 1 -10 9 0 8 -13 29 -30 46
-16 16 -34 39 -40 50 -6 11 -15 18 -21 15 -5 -4 -9 3 -9 13 0 11 -11 27 -25
36 -15 10 -23 22 -19 29 4 7 4 9 -1 5 -4 -4 -14 0 -22 10 -8 9 -11 11 -7 3 5
-9 3 -12 -4 -7 -7 4 -12 12 -12 17 0 6 -7 17 -15 25 -8 9 -15 13 -15 9 0 -3
-16 11 -36 32 -20 21 -33 32 -29 24 6 -9 4 -12 -3 -7 -7 4 -12 14 -12 23 0 9
-3 14 -6 11 -7 -8 -51 35 -47 44 2 4 -3 5 -11 2 -11 -4 -16 0 -16 11 0 9 -4
14 -8 11 -4 -3 -24 10 -44 27 -19 18 -48 40 -64 49 -16 10 -28 22 -27 27 1 5
-5 8 -15 7 -10 0 -16 5 -14 13 2 8 -3 11 -13 8 -9 -4 -15 -1 -15 9 0 8 -4 13
-9 9 -5 -3 -21 6 -35 20 -14 14 -26 22 -26 18 0 -4 -7 0 -15 11 -8 11 -20 16
-30 12 -9 -3 -14 -2 -12 2 3 4 -1 13 -9 20 -8 7 -14 9 -14 5 0 -4 -10 3 -21
17 -11 14 -17 18 -13 10 7 -13 6 -13 -12 0 -10 8 -29 22 -40 33 -12 10 -31 19
-42 20 -11 0 -19 4 -16 8 4 8 -35 25 -48 21 -4 -1 -4 6 -1 15 4 11 3 14 -5 9
-7 -4 -12 -3 -12 3 0 5 -14 12 -30 16 -17 4 -28 11 -24 16 3 5 -2 9 -10 9 -9
0 -16 5 -16 11 0 6 -6 9 -12 6 -7 -2 -24 8 -37 22 -13 14 -20 20 -17 14 5 -8
2 -11 -8 -7 -8 3 -17 12 -20 20 -3 9 -10 12 -16 9 -5 -3 -10 -2 -10 4 0 6 -14
17 -30 26 -16 9 -30 12 -30 9 0 -4 -8 3 -19 14 -10 12 -21 19 -25 15 -3 -3 -6
-1 -6 6 0 8 -7 11 -15 7 -8 -3 -14 -2 -12 2 1 4 -2 7 -6 7 -5 0 -13 8 -18 18
-6 9 -16 17 -23 17 -8 0 -19 7 -26 15 -7 8 -16 12 -21 9 -5 -3 -9 0 -9 7 0 7
-3 10 -6 7 -3 -3 -17 5 -31 18 -14 13 -30 22 -37 21 -6 -1 -10 3 -9 9 1 7 -5
11 -15 10 -9 0 -16 5 -15 12 2 6 -2 12 -7 12 -21 0 -25 2 -33 16 -5 8 -12 12
-17 9 -5 -3 -15 4 -23 15 -7 11 -16 18 -19 15 -3 -3 -13 4 -23 15 -10 11 -24
20 -30 20 -7 0 -15 7 -19 15 -3 8 -15 15 -26 15 -11 0 -19 3 -17 8 1 4 -2 9
-8 10 -18 6 -35 24 -30 32 3 4 -3 7 -13 6 -9 0 -16 5 -15 12 2 7 -7 12 -20 12
-18 0 -19 2 -7 10 13 8 12 10 -4 10 -19 0 -34 11 -78 58 -12 12 -27 22 -33 22
-6 0 -29 19 -50 43 -21 23 -35 35 -31 27 4 -8 1 -6 -8 5 -23 30 -80 85 -88 85
-5 0 -8 5 -8 11 0 5 5 7 12 3 7 -4 8 -3 4 4 -4 6 -14 8 -23 5 -11 -4 -14 -3
-9 5 4 7 1 12 -9 12 -9 0 -14 4 -11 8 3 5 -5 15 -19 22 -13 7 -29 26 -36 41
-6 16 -15 26 -20 23 -5 -3 -9 2 -9 10 0 8 -9 20 -20 26 -11 6 -18 15 -15 19 3
5 -2 11 -10 15 -8 3 -15 12 -15 21 0 8 -4 15 -10 15 -5 0 -10 7 -10 15 0 8 -9
19 -20 25 -11 6 -20 20 -20 31 0 11 -4 17 -10 14 -5 -3 -10 2 -10 11 0 9 -12
33 -27 53 -15 20 -27 38 -26 41 1 3 -3 10 -9 17 -5 7 -7 17 -4 22 4 5 -1 14
-9 19 -15 8 -22 26 -24 60 -1 7 -5 10 -11 7 -10 -6 -14 15 -11 44 2 7 -2 10
-8 6 -7 -4 -11 4 -11 19 0 14 -5 26 -11 26 -6 0 -9 7 -5 15 3 8 1 15 -4 15 -5
0 -7 6 -4 14 3 8 0 17 -5 21 -6 3 -9 11 -6 16 4 5 1 9 -5 9 -6 0 -8 5 -5 10 4
6 1 18 -7 27 -11 14 -11 16 2 8 13 -8 13 -6 1 8 -7 9 -14 31 -15 50 -1 18 -6
39 -11 47 -4 7 -8 28 -7 47 1 19 -2 32 -7 29 -4 -3 -8 1 -8 9 0 8 5 12 10 8 5
-3 5 2 -1 13 -5 11 -9 32 -8 47 1 16 -1 30 -4 32 -3 2 -5 25 -4 52 1 26 -1 53
-5 58 -9 15 -8 55 1 49 4 -3 8 0 8 5 0 6 -4 11 -10 11 -6 0 -6 9 0 24 5 15 5
27 -3 35 -8 8 -8 11 0 11 7 0 10 9 8 21 -2 11 0 31 5 45 5 13 6 24 1 24 -11 0
-1 62 13 79 8 11 8 13 -1 7 -7 -4 -13 -2 -13 3 0 6 5 11 10 11 6 0 10 5 10 11
0 5 -6 7 -12 3 -9 -6 -9 -3 1 9 7 9 11 24 7 32 -3 8 -1 15 5 15 6 0 8 4 4 9
-3 5 -1 12 5 16 5 3 10 12 10 18 0 7 -4 6 -10 -3 -5 -8 -10 -12 -10 -7 0 7 4
15 31 68 6 12 8 24 5 27 -3 3 -6 -1 -6 -8 0 -7 -3 -10 -7 -7 -3 4 1 15 10 24
8 10 16 21 16 26 -1 25 14 66 22 61 5 -3 9 7 9 21 0 15 4 24 10 20 5 -3 7 0 4
8 -3 8 2 20 11 27 8 7 15 21 15 31 0 10 4 20 9 23 12 8 55 99 52 111 -1 5 0 7
4 3 9 -9 25 8 44 45 8 15 18 27 23 27 5 0 6 5 3 10 -3 6 0 10 7 10 7 0 19 14
26 30 8 17 17 28 21 25 9 -5 51 40 51 55 0 9 15 14 33 11 5 -1 6 3 3 8 -8 12
23 43 35 35 5 -3 8 -1 7 4 -4 12 39 52 88 83 21 13 46 31 57 42 10 10 23 15
29 11 7 -4 8 -3 4 4 -4 7 -1 13 8 13 31 3 35 4 48 19 11 12 10 12 -7 0 -17
-12 -18 -12 -8 0 7 7 23 15 35 17 13 2 25 8 26 13 2 6 12 10 23 10 10 0 19 5
19 10 0 6 6 9 13 8 6 -2 11 4 9 12 -2 8 0 12 4 7 4 -4 18 0 32 9 13 9 21 11
17 4 -4 -7 5 -4 20 6 23 15 28 15 37 3 8 -11 9 -10 4 4 -4 13 0 17 19 17 13 0
27 5 31 12 5 7 3 8 -6 3 -9 -5 -11 -4 -6 3 5 9 13 9 26 2 13 -7 20 -6 23 3 2
6 10 12 18 13 8 0 24 2 37 2 16 2 21 6 16 15 -5 8 -2 8 9 -2 13 -10 17 -10 17
-1 0 7 7 10 15 7 8 -4 17 -2 20 3 3 5 14 7 25 5 13 -3 18 0 14 7 -5 7 2 9 20
6 14 -3 26 -1 26 3 0 12 23 7 32 -6 4 -6 8 -2 8 9 0 14 3 16 13 7 8 -6 17 -8
21 -4 9 10 41 12 171 12 142 1 148 0 162 -11 7 -6 19 -8 27 -5 7 3 25 -1 40
-8 19 -10 25 -11 20 -2 -4 7 2 3 14 -7 12 -11 25 -16 28 -13 4 3 16 1 28 -5
11 -7 29 -12 39 -13 9 -1 24 -10 33 -21 8 -10 12 -13 9 -5 -8 14 45 -16 57
-34 5 -6 8 -4 8 5 1 12 3 11 11 -2 5 -10 17 -18 26 -18 10 0 13 -6 9 -16 -3
-8 -2 -12 3 -9 5 3 12 1 16 -5 4 -6 10 -8 15 -5 5 3 11 -4 15 -15 4 -11 11
-18 16 -15 5 4 12 -1 15 -9 3 -8 15 -18 26 -22 11 -3 17 -8 14 -11 -2 -3 9
-18 25 -34 16 -15 29 -33 29 -38 0 -6 9 -15 20 -21 11 -6 18 -15 16 -19 -3 -4
2 -17 12 -27 21 -24 25 -55 6 -47 -8 3 -14 9 -14 14 0 5 -9 9 -20 9 -10 0 -23
7 -28 16 -5 9 -12 15 -15 15 -23 -3 -37 0 -33 8 3 4 -6 6 -19 3 -15 -2 -25 0
-25 7 0 6 -3 10 -7 9 -7 -1 -66 7 -125 18 -10 1 -18 -2 -18 -8 0 -7 -7 -3 -16
8 -8 10 -13 14 -10 8 6 -13 -36 -13 -46 0 -4 6 -12 5 -21 -3 -11 -8 -17 -9
-22 -1 -3 6 -12 7 -18 3 -6 -4 -27 -8 -47 -10 -55 -6 -64 -8 -79 -17 -10 -7
-12 -5 -7 5 4 8 0 5 -8 -5 -9 -11 -16 -15 -16 -10 0 6 -14 9 -31 6 -22 -3 -27
-7 -18 -13 9 -6 -2 -9 -31 -9 -33 0 -41 -3 -30 -10 12 -8 10 -10 -10 -11 -14
-1 -28 -1 -32 0 -5 0 -8 -3 -8 -8 0 -5 -10 -11 -23 -15 -13 -3 -33 -14 -46
-25 -12 -11 -31 -18 -42 -16 -11 2 -18 1 -16 -3 5 -10 -30 -42 -37 -35 -3 4
-6 1 -6 -6 0 -7 -4 -9 -10 -6 -5 3 -10 1 -10 -5 0 -6 -4 -9 -9 -6 -5 3 -8 -2
-7 -11 0 -10 -3 -18 -9 -18 -18 0 -51 -29 -76 -66 -13 -20 -28 -38 -34 -40 -5
-2 -8 -10 -7 -18 2 -7 -1 -10 -7 -7 -6 4 -13 -5 -17 -19 -3 -14 -10 -25 -14
-25 -8 0 -25 -49 -22 -62 1 -5 -2 -8 -8 -8 -5 0 -10 -9 -10 -21 0 -11 -4 -18
-9 -15 -5 4 -8 -2 -6 -11 1 -10 -4 -25 -12 -35 -11 -12 -11 -18 -3 -23 9 -5 9
-9 1 -14 -6 -4 -11 -29 -12 -56 -1 -28 -7 -56 -13 -64 -8 -11 -8 -13 2 -7 6 4
12 3 12 -3 0 -5 -4 -12 -9 -16 -6 -3 -9 -14 -8 -25 1 -10 5 -16 9 -14 13 8 9
-11 -4 -25 -10 -11 -10 -13 0 -7 6 4 12 2 12 -3 0 -6 -6 -11 -12 -11 -8 0 -9
-3 -3 -8 15 -11 17 -64 2 -55 -9 5 -9 4 0 -8 6 -8 14 -34 17 -59 2 -25 5 -46
6 -47 2 -2 3 -7 4 -12 0 -5 4 -12 8 -16 4 -4 4 -13 1 -21 -3 -8 0 -14 7 -14 7
0 10 -8 7 -20 -3 -11 -1 -20 5 -20 5 0 6 -4 3 -10 -3 -5 -1 -10 4 -10 6 0 10
-3 9 -7 -3 -16 15 -63 24 -63 5 0 6 -4 3 -10 -3 -5 -1 -10 6 -10 7 0 9 -3 6
-7 -4 -3 -2 -12 4 -20 6 -7 9 -13 6 -13 -3 0 4 -10 16 -23 46 -49 74 -86 69
-92 -3 -3 2 -5 11 -5 10 0 17 -7 17 -16 0 -8 5 -12 10 -9 6 3 10 -1 10 -10 0
-9 5 -13 10 -10 6 3 10 -1 10 -9 0 -14 12 -20 33 -17 4 0 7 -6 7 -14 0 -8 7
-15 15 -15 9 0 18 -7 21 -15 4 -8 15 -15 25 -15 11 0 19 -7 19 -17 0 -14 2
-15 9 -4 7 11 11 10 19 -5 6 -10 14 -16 17 -12 4 4 14 0 22 -8 8 -8 19 -12 24
-8 5 3 8 0 7 -7 -2 -7 4 -13 12 -14 27 -1 60 -16 60 -27 0 -6 6 -5 16 2 12 11
15 11 12 0 -2 -9 8 -14 28 -15 17 0 39 -6 47 -14 9 -7 21 -10 27 -6 5 3 10 1
10 -4 0 -6 13 -11 30 -11 24 0 28 -3 23 -17 -7 -17 -6 -17 11 0 19 19 31 23
21 7 -3 -6 5 -10 19 -10 14 0 28 -5 31 -11 4 -6 13 -8 21 -5 7 3 16 1 19 -4 3
-5 17 -7 31 -4 19 3 24 1 18 -8 -5 -8 -1 -7 11 2 10 8 16 10 12 3 -5 -7 -1
-12 10 -11 28 0 81 -10 94 -18 8 -4 9 -3 5 4 -4 6 6 5 21 -3 16 -9 29 -11 31
-5 2 6 16 3 32 -5 34 -17 52 -20 30 -4 -12 9 -11 9 5 4 29 -11 76 -18 108 -17
15 1 25 -3 22 -8 -3 -5 3 -9 12 -9 62 0 92 -4 88 -10 -2 -4 2 -8 10 -8 8 0 11
5 8 11 -4 6 0 6 8 -1 8 -7 24 -12 34 -13 53 -1 75 -5 75 -13 0 -4 5 -5 10 -2
6 3 10 1 10 -6 0 -8 4 -8 13 -1 7 6 18 7 26 2 8 -4 20 -6 28 -3 7 3 13 0 13
-6 0 -6 3 -10 8 -10 4 1 9 0 12 -1 3 -1 19 -3 35 -4 17 -1 37 -5 45 -8 22 -9
72 -19 95 -19 10 0 25 -5 32 -11 7 -5 20 -8 28 -4 9 3 13 2 10 -4 -3 -6 4 -10
17 -10 13 0 39 -10 58 -22 19 -12 40 -22 45 -23 22 -1 55 -17 55 -26 0 -5 3
-8 8 -7 12 2 45 -14 78 -38 17 -13 34 -20 38 -17 3 4 6 -1 6 -10 0 -9 7 -17
16 -17 8 0 13 -4 10 -9 -3 -5 2 -15 11 -22 14 -12 16 -12 8 1 -5 8 8 -1 28
-22 20 -20 37 -41 37 -47 0 -6 7 -11 16 -11 8 0 13 -4 9 -9 -3 -5 5 -17 17
-25 12 -9 19 -16 14 -16 -5 0 3 -11 17 -24 14 -13 38 -46 54 -75 16 -28 32
-48 35 -45 3 3 5 -3 4 -13 0 -10 4 -17 9 -16 6 1 11 -12 12 -29 1 -17 8 -36
14 -44 6 -8 8 -14 4 -14 -4 0 -2 -7 5 -15 6 -8 9 -19 6 -24 -4 -6 3 -15 14
-21 15 -8 27 -7 51 6 17 8 29 12 26 6 -4 -5 0 -9 8 -9 8 0 11 5 8 10 -4 6 0 8
10 4 8 -3 21 1 28 9 7 8 16 11 23 6 10 -8 59 9 53 19 -1 2 2 1 7 -3 4 -3 24 2
42 13 39 22 48 24 39 8 -4 -6 2 -5 14 3 12 7 21 16 21 21 0 4 5 5 10 2 6 -4
22 1 37 10 14 9 23 13 19 7 -3 -5 11 -1 31 9 21 11 46 19 56 19 10 0 15 4 12
10 -3 6 5 10 19 10 14 0 31 8 38 18 18 24 55 52 43 33 -6 -10 -4 -12 4 -7 7 5
10 14 7 22 -3 8 -1 14 5 14 6 0 7 5 4 10 -3 5 0 10 7 10 8 0 9 3 3 8 -6 4 -10
17 -9 30 1 12 -3 25 -7 28 -5 3 -9 14 -9 25 0 11 -5 17 -10 14 -12 -7 -42 19
-33 29 3 3 -5 10 -18 16 -40 18 -75 40 -64 40 6 0 3 4 -5 10 -9 6 -17 5 -22
-3 -5 -8 -8 -6 -8 6 0 9 -7 17 -17 17 -9 0 -14 3 -10 6 8 8 -34 54 -45 48 -4
-3 -8 6 -8 20 0 13 -5 26 -11 28 -7 2 -12 31 -13 71 -1 56 1 65 12 50 11 -15
12 -15 12 5 0 26 30 58 68 74 34 14 74 19 67 9 -2 -5 1 -9 8 -8 33 1 48 -4 41
-14 -3 -6 -14 -9 -24 -6 -11 3 -21 -1 -24 -9 -3 -8 -11 -14 -18 -14 -9 0 -8 3
2 10 10 7 11 10 2 10 -7 0 -15 -7 -18 -15 -4 -8 -10 -13 -15 -10 -4 3 -6 -4
-4 -16 3 -13 0 -28 -6 -36 -15 -18 63 -93 91 -88 11 2 19 -1 17 -8 -1 -7 9
-12 25 -11 15 0 24 -4 21 -10 -4 -5 3 -7 15 -4 13 4 23 0 26 -9 3 -8 11 -11
16 -8 6 4 28 -2 49 -14 22 -11 42 -17 45 -14 3 4 6 2 6 -3 0 -5 10 -10 22 -11
12 -1 31 -12 41 -25 10 -13 16 -16 12 -8 -4 8 1 6 9 -4 9 -11 16 -16 16 -12 0
4 7 0 16 -8 18 -18 34 -21 34 -6 0 5 9 19 19 29 11 11 21 28 23 38 2 10 7 21
12 24 5 4 9 18 9 33 0 14 2 24 6 22 3 -2 7 18 9 45 1 38 -1 49 -13 49 -8 0
-14 3 -14 8 3 18 -2 33 -9 28 -5 -3 -16 4 -25 14 -11 13 -12 20 -4 24 7 3 6 5
-3 5 -8 1 -21 10 -28 21 -7 12 -17 18 -22 15 -6 -3 -10 0 -10 8 0 8 -20 35
-45 59 -25 25 -45 50 -45 56 0 6 -9 16 -19 22 -11 5 -22 18 -26 29 -3 10 -15
21 -26 24 -12 3 -18 10 -14 16 3 6 -1 11 -10 11 -9 0 -14 4 -11 9 3 5 -1 11
-9 15 -8 3 -24 20 -35 38 -11 18 -20 29 -20 25 0 -5 -12 6 -27 24 -16 18 -27
36 -26 41 2 4 -5 4 -14 1 -11 -4 -14 -3 -9 5 8 13 -18 45 -28 35 -3 -4 -6 -1
-6 6 0 6 -19 30 -42 51 -23 22 -38 40 -34 40 4 0 -4 11 -18 24 -15 13 -26 29
-26 35 0 7 -4 10 -8 7 -5 -3 -19 6 -30 19 -12 14 -19 25 -14 25 4 0 -1 5 -11
11 -9 6 -15 14 -12 20 4 5 -1 9 -10 9 -9 0 -13 5 -10 10 3 6 0 10 -8 10 -14 0
-63 60 -59 73 1 4 -4 7 -12 7 -15 0 -52 49 -48 63 1 5 -2 6 -8 2 -5 -3 -10 -1
-10 4 0 6 -7 11 -15 11 -9 0 -12 6 -9 15 5 11 2 13 -10 9 -12 -5 -15 -2 -10
10 4 11 1 16 -11 16 -11 0 -15 5 -11 15 3 8 2 14 -3 12 -11 -3 -91 85 -91 100
0 7 -7 10 -17 6 -11 -4 -14 -3 -9 5 4 7 3 12 -3 12 -5 0 -13 9 -16 20 -4 11
-11 18 -16 15 -5 -4 -10 -1 -10 4 -1 6 -2 17 -3 24 0 6 -6 12 -12 12 -15 0
-92 84 -100 108 -3 9 -9 15 -13 13 -4 -3 -14 4 -22 15 -8 12 -25 33 -39 48
-14 15 -31 36 -38 47 -7 10 -10 13 -6 5 5 -9 3 -12 -4 -7 -7 4 -12 14 -12 22
0 8 -4 12 -10 9 -5 -3 -10 1 -10 10 0 9 -4 14 -8 11 -10 -6 -48 55 -43 69 1 5
-1 7 -5 3 -9 -10 -36 11 -28 23 3 5 -3 6 -13 2 -10 -3 -15 -3 -11 1 6 7 -37
60 -89 111 -13 12 -23 28 -23 35 0 7 -3 11 -6 7 -7 -7 -60 54 -56 65 1 4 -4 8
-12 8 -7 0 -16 9 -19 21 -3 12 -10 18 -16 14 -6 -3 -11 1 -11 9 0 9 -3 15 -7
15 -20 -3 -26 2 -13 11 11 7 12 10 2 10 -16 0 -43 25 -36 33 3 3 -4 8 -15 12
-12 3 -19 11 -16 16 4 5 1 9 -5 9 -6 0 -8 5 -5 10 3 6 -3 10 -14 10 -15 0 -19
4 -14 17 4 10 2 14 -4 10 -13 -8 -65 57 -55 68 4 5 1 5 -5 1 -8 -4 -13 -1 -13
9 0 9 -4 13 -10 10 -5 -3 -10 1 -10 10 0 9 -4 13 -10 10 -9 -6 -14 7 -11 27 0
4 -7 4 -16 1 -13 -5 -15 -2 -9 12 4 11 4 16 1 13 -8 -8 -65 48 -65 62 0 6 -4
10 -9 10 -5 0 -13 10 -16 21 -6 17 -9 19 -16 8 -7 -11 -9 -10 -9 4 0 9 -7 17
-16 17 -8 0 -12 4 -9 10 3 5 -5 19 -19 31 -14 12 -23 26 -20 31 3 4 0 8 -7 8
-15 0 -85 81 -81 93 2 5 -4 7 -13 3 -9 -3 -13 -2 -10 3 3 6 -3 14 -12 20 -10
6 -14 11 -9 11 5 0 -13 20 -40 45 -27 25 -45 45 -41 45 4 0 -19 27 -50 60 -79
82 -93 98 -93 111 0 5 -4 7 -10 4 -5 -3 -10 2 -10 12 0 15 -2 16 -10 3 -6 -10
-10 -11 -10 -2 0 21 -3 27 -27 45 -13 10 -21 22 -18 26 2 5 -7 14 -20 21 -14
7 -25 17 -25 22 0 4 -11 18 -25 30 -13 11 -21 26 -18 31 4 6 0 8 -10 4 -9 -3
-16 -3 -16 1 3 19 -2 33 -10 28 -5 -3 -16 9 -25 27 -8 17 -16 26 -16 18 0 -11
-4 -9 -14 4 -8 11 -12 23 -10 27 3 5 -3 8 -13 8 -15 0 -16 2 -3 10 12 8 10 10
-8 10 -13 0 -21 4 -18 9 4 5 1 11 -6 13 -7 3 -13 16 -13 31 -1 14 1 24 6 22
10 -7 21 24 12 37 -4 7 -1 8 7 3 10 -6 12 -4 7 8 -4 11 3 26 21 43 15 15 20
23 12 18 -13 -7 -13 -5 -1 9 7 9 17 14 22 11 5 -3 9 -2 8 3 -4 14 24 63 32 57
5 -3 9 -1 9 5 0 14 56 71 70 71 5 0 10 5 10 11 0 5 5 7 10 4 6 -3 10 1 10 11
0 11 6 15 20 11 11 -3 18 -1 15 3 -3 5 4 14 15 20 11 6 20 8 20 5 0 -4 7 1 16
9 8 9 20 14 25 10 5 -3 8 0 7 8 -2 8 4 12 16 10 10 -2 15 1 12 6 -3 5 0 10 7
9 39 -1 58 4 51 14 -5 8 1 10 18 6 17 -5 30 -2 38 8 7 8 18 15 24 15 6 0 4 -5
-4 -10 -9 -6 -10 -10 -3 -10 6 0 15 5 18 11 4 6 13 8 21 5 7 -3 16 -2 18 3 3
4 19 7 36 6 16 -1 30 2 30 7 0 5 9 4 20 -2 15 -8 20 -8 20 1 0 9 3 9 14 0 10
-8 16 -9 21 -1 3 6 12 7 18 3 16 -10 47 -11 41 -2 -2 4 2 10 8 12 8 3 6 6 -4
6 -10 1 -20 0 -22 -1 -2 -2 -12 5 -23 14 -10 9 -32 20 -48 23 -34 7 -58 13
-65 15 -3 1 -9 2 -14 1 -4 -1 -13 2 -20 7 -6 5 -26 10 -45 10 -18 0 -38 5 -44
11 -5 5 -16 7 -23 4 -8 -3 -14 0 -14 6 0 9 -5 9 -17 2 -13 -7 -23 -5 -35 6
-15 13 -18 13 -18 2 0 -11 -2 -11 -10 1 -7 11 -10 11 -10 2 0 -10 -5 -10 -21
-2 -11 7 -26 9 -34 7 -7 -3 -18 0 -24 6 -6 6 -11 7 -11 3 0 -5 -8 -2 -17 5 -9
8 -14 9 -10 3 4 -7 -5 -11 -25 -12 -24 -1 -28 2 -18 8 13 8 12 10 -2 10 -10 0
-18 -6 -18 -12 0 -10 -2 -10 -8 0 -7 9 -49 12 -175 10 -91 -1 -164 -6 -161
-10 3 -4 0 -8 -5 -8 -6 0 -11 4 -11 8 0 5 -7 9 -15 9 -8 0 -12 -4 -9 -9 3 -4
-2 -8 -11 -8 -9 0 -13 5 -10 10 8 13 2 13 -12 -1z m-4910 -3774 c4 -8 3 -16
-1 -19 -4 -3 -9 4 -9 15 -2 23 3 25 10 4z"/>
</g>
</svg>
