<?xml version="1.0" encoding="UTF-8" standalone="no"?>
<!DOCTYPE svg PUBLIC "-//W3C//DTD SVG 1.1//EN" "http://www.w3.org/Graphics/SVG/1.1/DTD/svg11.dtd">
<svg width="100%" height="100%" viewBox="0 0 400 396" version="1.1" xmlns="http://www.w3.org/2000/svg" xmlns:xlink="http://www.w3.org/1999/xlink" xml:space="preserve" style="fill-rule:evenodd;clip-rule:evenodd;stroke-linejoin:round;stroke-miterlimit:1.41421;">
    <g transform="matrix(6.25704,0,0,6.25704,-2538.64,-1201.04)">
        <path d="M433.512,193.265C433.526,193.265 433.538,193.276 433.538,193.291C433.538,193.305 433.526,193.312 433.513,193.317C424.479,196.476 421.611,207.473 421.611,207.473C421.608,207.488 421.613,207.505 421.627,207.514C421.645,207.527 421.669,207.522 421.683,207.504C438.034,186.091 453.263,193.019 453.263,193.019C453.292,193.026 453.307,193.053 453.299,193.081C453.294,193.105 453.273,193.121 453.249,193.119C452.958,193.091 448.456,192.73 446.953,196.888L469.653,222.232C469.653,222.971 469.369,223.625 468.913,224.199C468.678,223.854 467.703,223.398 467.055,223.19C466.166,222.903 465.341,222.76 465.341,222.098C465.341,221.619 465.76,221.49 465.98,221.49C466.174,221.49 466.283,221.581 466.283,221.581C466.287,221.586 466.293,221.587 466.297,221.582C466.302,221.578 466.303,221.572 466.3,221.568C466.3,221.568 466.147,221.232 465.694,221.225C465.253,221.214 464.552,221.529 464.509,222.365C464.478,223.054 464.805,223.429 465.308,223.776C465.803,224.12 466.775,224.557 466.775,225.281C466.775,226.002 466.222,226.175 466.098,226.233C465.857,226.349 463.801,227.276 461.787,227.653C461.687,227.302 461.659,226.15 459.612,224.06C455.19,219.545 441.449,223.787 441.449,213.444C441.449,208.73 445.907,207.343 448.113,207.343C449.956,207.343 451.087,208.101 451.243,208.201C451.256,208.21 451.273,208.209 451.287,208.2C451.309,208.187 451.316,208.159 451.302,208.139C451.302,208.139 449.734,204.691 445.281,204.691C440.354,204.691 433.432,208.296 433.432,216.167C433.432,232.505 456.322,231.478 456.322,245.286C456.322,250.672 453.158,253.424 449.175,254.84C449.175,254.84 451.08,253.493 451.08,250.928C451.08,239.247 424.021,241.758 424.021,228.929C424.021,223.934 428.282,222.126 429.374,222.126C429.399,222.126 429.419,222.105 429.419,222.081C429.419,222.065 429.41,222.05 429.397,222.043C429.265,221.962 428.573,221.6 427.276,221.6C423.888,221.6 417.429,224.65 417.429,232.415C417.429,241.662 429.459,247.479 429.459,251.945C429.459,253.89 428.238,255.206 428.238,255.206C418.354,252.054 405.725,242.142 405.725,224.472C405.725,203.097 425.684,193.265 433.512,193.265" style="fill-rule:nonzero;"/>
    </g>
</svg>
